HIERARCHY
ROOT Hips
{
	OFFSET 0.00 0.00 0.00
	CHANNELS 6 Xposition Yposition Zposition Xrotation Yrotation Zrotation
	JOINT LeftUpLeg
	{
		OFFSET 2.83210 0.00000 0.00000
		CHANNELS 3 Xrotation Yrotation Zrotation
		JOINT LeftLeg
		{
			OFFSET 0.00000 -16.27150 0.00000
			CHANNELS 3 Xrotation Yrotation Zrotation
			JOINT LeftFoot
			{
				OFFSET 0.00000 -14.95190 0.00000
				CHANNELS 3 Xrotation Yrotation Zrotation
				JOINT LeftToeBase
				{
					OFFSET 0.00000 -1.07991 4.03030
					CHANNELS 3 Xrotation Yrotation Zrotation
					End Site
					{
						OFFSET 0.00000 0.00000 2.95275
					}
				}
			}
		}
	}
	JOINT RightUpLeg
	{
		OFFSET -2.83210 0.00000 0.00000
		CHANNELS 3 Xrotation Yrotation Zrotation
		JOINT RightLeg
		{
			OFFSET 0.00000 -16.27150 0.00000
			CHANNELS 3 Xrotation Yrotation Zrotation
			JOINT RightFoot
			{
				OFFSET 0.00000 -14.95190 0.00000
				CHANNELS 3 Xrotation Yrotation Zrotation
				JOINT RightToeBase
				{
					OFFSET 0.00000 -1.07991 4.03030
					CHANNELS 3 Xrotation Yrotation Zrotation
					End Site
					{
						OFFSET 0.00000 0.00000 2.95275
					}
				}
			}
		}
	}
	JOINT Spine
	{
		OFFSET 0.00000 0.03937 0.00000
		CHANNELS 3 Xrotation Yrotation Zrotation
		JOINT Spine1
		{
			OFFSET 0.00000 8.01054 0.00000
			CHANNELS 3 Xrotation Yrotation Zrotation
			JOINT Neck
			{
				OFFSET 0.00000 8.21888 0.00000
				CHANNELS 3 Xrotation Yrotation Zrotation
				JOINT Head
				{
					OFFSET 0.00000 3.25664 0.00000
					CHANNELS 3 Xrotation Yrotation Zrotation
					End Site
					{
						OFFSET 0.00000 4.52755 0.00000
					}
				}
			}
			JOINT LeftShoulder
			{
				OFFSET 0.00000 8.21888 0.00000
				CHANNELS 3 Xrotation Yrotation Zrotation
				JOINT LeftArm
				{
					OFFSET 6.52904 -0.00002 0.00000
					CHANNELS 3 Xrotation Yrotation Zrotation
					JOINT LeftForeArm
					{
						OFFSET 10.44840 -0.00004 0.00000
						CHANNELS 3 Xrotation Yrotation Zrotation
						JOINT LeftHand
						{
							OFFSET 8.94727 -0.00003 0.00000
							CHANNELS 3 Xrotation Yrotation Zrotation
							JOINT LeftHandThumb
							{
								OFFSET 0.00000 0.00000 0.00000
								CHANNELS 3 Xrotation Yrotation Zrotation
								End Site
								{
									OFFSET 0.00000 0.00000 3.93700
								}
							}
							JOINT L_Wrist_End
							{
								OFFSET 3.93700 -0.00001 0.00000
								CHANNELS 3 Xrotation Yrotation Zrotation
							}
						}
					}
				}
			}
			JOINT RightShoulder
			{
				OFFSET 0.00000 8.21888 0.00000
				CHANNELS 3 Xrotation Yrotation Zrotation
				JOINT RightArm
				{
					OFFSET -6.52904 -0.00002 0.00000
					CHANNELS 3 Xrotation Yrotation Zrotation
					JOINT RightForeArm
					{
						OFFSET -10.44840 -0.00004 0.00000
						CHANNELS 3 Xrotation Yrotation Zrotation
						JOINT RightHand
						{
							OFFSET -8.94727 -0.00003 0.00000
							CHANNELS 3 Xrotation Yrotation Zrotation
							JOINT RightHandThumb
							{
								OFFSET 0.00000 0.00000 0.00000
								CHANNELS 3 Xrotation Yrotation Zrotation
								End Site
								{
									OFFSET 0.00000 0.00000 3.93700
								}
							}
							JOINT R_Wrist_End
							{
								OFFSET -5.39369 -0.00002 0.00000
								CHANNELS 3 Xrotation Yrotation Zrotation
							}
						}
					}
				}
			}
		}
	}
}
MOTION
Frames: 9
Frame Time: 0.008333
 -60.4661 32.4859 -19.4740 10.4604 18.3253 -1.8311 -1.0332 30.0280 -0.3817 38.0304 -0.0000 0.0000 28.3432 -2.1493 -7.9365 -14.9251 -0.0000 -0.0000 -14.2497 -30.2424 5.9763 16.5624 0.0000 0.0000 -18.4249 -40.8250 16.4346 19.5196 -0.0000 -0.0000 -10.7846 0.7596 -8.4761 12.9021 -8.5885 7.1991 -22.3092 38.6758 -3.0205 -10.4962 -21.0780 6.0194 12.4742 7.7449 3.6140 92.7250 -84.4039 56.2253 -0.0001 -22.6205 -0.0000 9.2541 -2.3683 -30.2379 0.0000 -0.0000 0.0000 0.0000 -0.0000 0.0000 18.0871 -23.0813 2.4342 -23.5326 3.8756 53.7315 -0.0000 8.7586 0.0000 -1.4989 -8.9744 -12.8714 0.0000 0.0000 -0.0000 0.0000 0.0000 -0.0000
 -60.6058 32.4725 -19.6028 10.5027 18.8551 -1.7538 -1.1026 28.8757 -0.6838 37.7731 -0.0000 0.0000 27.5063 -1.6281 -6.4787 -15.5868 0.0000 -0.0000 -14.8816 -30.6365 5.7421 17.1513 -0.0000 0.0000 -18.4615 -40.8191 16.6748 19.5196 -0.0000 0.0000 -10.7226 0.7308 -8.5090 12.8941 -8.6333 7.0896 -22.2367 38.6879 -3.2895 -10.4784 -20.8987 6.4324 12.3504 7.6888 3.7123 95.0829 -83.9464 59.2066 -0.0001 -23.6123 -0.0000 8.5739 -2.5939 -30.4893 -0.0000 -0.0000 0.0000 -0.0000 -0.0000 0.0000 17.9164 -23.1192 2.2503 -23.7050 3.4786 53.5353 -0.0000 8.8490 0.0000 -1.5713 -8.8791 -12.0019 -0.0000 0.0000 0.0000 -0.0000 0.0000 0.0000
 -60.7382 32.4585 -19.7579 10.6055 19.3930 -1.6427 -1.2406 27.4761 -1.1532 37.5647 -0.0000 0.0000 26.9073 -1.0928 -5.9132 -15.9338 0.0000 -0.0000 -15.7953 -31.0375 5.3346 17.9567 0.0000 0.0000 -18.4344 -40.8276 16.4363 19.5196 0.0000 -0.0000 -10.5719 0.6829 -8.5301 12.7458 -8.7006 6.9286 -22.0704 38.6476 -3.5862 -10.5863 -20.6841 6.7954 12.3394 7.6468 3.7630 96.6894 -83.5227 61.5659 -0.0001 -24.6513 -0.0000 8.2362 -2.3713 -30.8181 0.0000 0.0000 0.0000 0.0000 0.0000 0.0000 17.8188 -23.0873 2.0875 -24.0127 2.9776 53.2991 -0.0000 8.8865 0.0000 -1.6241 -8.6056 -11.0095 0.0000 -0.0000 -0.0000 0.0000 -0.0000 -0.0000
 -60.8725 32.4381 -19.9123 10.7360 19.6455 -1.4835 -1.3313 26.4565 -1.6890 37.3229 -0.0000 0.0000 26.7222 -1.1535 -6.1904 -16.1807 0.0000 0.0000 -16.8970 -31.1252 4.8701 19.0413 0.0000 0.0000 -18.4881 -40.7657 16.7613 19.5196 0.0000 -0.0000 -10.4269 0.7334 -8.5621 12.5266 -8.6751 6.7375 -21.9043 38.7109 -3.7184 -10.7952 -20.4636 6.9221 12.3073 7.6653 3.8454 97.6419 -83.1664 63.1873 -0.0001 -25.7340 -0.0000 7.5611 -2.4695 -31.1311 0.0000 0.0000 -0.0000 0.0000 0.0000 -0.0000 17.7203 -22.9960 1.8631 -24.2675 2.4783 53.0868 -0.0000 9.0273 0.0000 -1.6831 -8.5111 -10.1126 0.0000 0.0000 0.0000 0.0000 0.0000 0.0000
 -61.0073 32.4198 -20.0290 10.5645 19.8098 -1.4849 -1.1348 25.6003 -1.9082 37.0508 0.0000 -0.0000 25.5870 -0.8521 -6.2407 -16.0586 0.0000 -0.0000 -17.4384 -31.2169 4.7550 20.1094 -0.0000 0.0000 -18.0618 -40.5719 18.0097 19.5196 -0.0000 0.0000 -10.3646 0.7854 -8.5001 12.8058 -8.5973 6.7940 -21.9777 38.9763 -3.6919 -10.8657 -20.2546 6.9035 11.8911 7.6285 4.0059 96.8331 -83.1925 62.6457 -0.0001 -26.8647 -0.0000 7.0868 -2.6298 -31.4813 0.0000 0.0000 -0.0000 0.0000 0.0000 -0.0000 17.8384 -22.9003 1.7489 -24.7994 2.2974 52.8190 -0.0000 9.0420 0.0000 -1.9632 -8.2955 -9.3367 -0.0000 -0.0000 -0.0000 -0.0000 -0.0000 -0.0000
 -61.1401 32.3950 -20.1871 10.6974 20.1652 -1.4054 -1.2716 24.5200 -2.4060 37.1042 -0.0000 0.0000 23.7121 0.0826 -5.7970 -15.7065 0.0000 0.0000 -18.6987 -31.4222 4.2002 21.5396 0.0000 0.0000 -17.9402 -40.3769 18.1721 19.5196 0.0000 0.0000 -10.2624 0.8617 -8.5006 12.7022 -8.5425 6.6477 -21.3845 38.8570 -3.6166 -11.7817 -19.9767 6.2709 11.9623 7.4397 4.1507 97.0553 -82.9126 63.6768 -0.0001 -27.9901 -0.0000 6.3231 -2.5300 -31.7916 -0.0000 -0.0000 -0.0000 -0.0000 -0.0000 -0.0000 17.5697 -22.9586 1.5436 -24.8025 1.9092 52.5654 -0.0000 9.3072 0.0000 -2.2782 -8.1219 -8.3693 -0.0000 0.0000 -0.0000 -0.0000 0.0000 -0.0000
 -61.2702 32.3736 -20.3104 10.5123 20.2303 -1.4170 -1.0566 24.0454 -2.6144 37.0770 -0.0000 0.0000 21.7202 0.9259 -5.1799 -15.0829 -0.0000 0.0000 -19.4445 -31.4933 3.9344 22.9880 -0.0000 -0.0000 -17.5203 -39.9307 19.2367 19.5196 -0.0000 -0.0000 -10.1798 0.9192 -8.4138 13.0070 -8.4508 6.7301 -21.4503 39.0806 -3.6412 -11.8996 -19.7387 6.2597 11.5609 7.4381 4.3030 96.0964 -82.9470 63.0017 -0.0001 -29.1715 -0.0000 5.9107 -2.5701 -32.0422 -0.0000 0.0000 -0.0000 -0.0000 0.0000 -0.0000 17.7304 -22.7996 1.4545 -25.4793 1.6971 52.2500 -0.0000 9.3328 0.0000 -2.5661 -7.9407 -7.5892 -0.0000 0.0000 0.0000 -0.0000 0.0000 0.0000
 -61.3846 32.3476 -20.5011 10.8816 20.0406 -1.2435 -1.2882 23.6868 -3.4057 37.1000 0.0000 -0.0000 19.7712 2.2527 -4.3740 -14.6679 -0.0000 0.0000 -21.4465 -31.1141 3.1084 25.0995 -0.0000 0.0000 -17.0088 -39.7476 20.2116 19.5196 0.0000 0.0000 -10.1080 1.1379 -8.3840 12.6143 -8.2906 6.4866 -20.2173 38.8065 -3.6883 -13.5645 -19.1116 5.3048 11.8283 7.5213 4.1556 96.4115 -82.4869 64.3090 -0.0001 -30.3644 -0.0000 5.1161 -2.3714 -32.3785 0.0000 -0.0000 -0.0000 0.0000 -0.0000 -0.0000 17.5199 -22.7167 1.2096 -25.5745 1.6233 51.9338 -0.0000 9.3407 0.0000 -3.0836 -7.6064 -6.7832 0.0000 0.0000 -0.0000 0.0000 0.0000 -0.0000
 -61.5084 32.3339 -20.6195 10.6863 20.1692 -1.2839 -1.0069 23.3535 -3.6322 36.9507 -0.0000 0.0000 17.8774 3.4112 -3.5469 -14.2804 -0.0000 -0.0000 -22.3873 -31.4510 2.6867 26.8911 -0.0000 0.0000 -16.0806 -39.1754 21.9680 19.7232 0.0000 0.0000 -10.0439 1.1714 -8.2988 12.9750 -8.2188 6.5947 -20.3398 38.9804 -3.7617 -13.5812 -18.9446 5.4064 11.4586 7.4716 4.2878 95.7927 -82.4925 63.9838 -0.0001 -31.4595 -0.0000 4.5425 -2.5108 -32.4869 0.0000 -0.0000 0.0000 0.0000 -0.0000 0.0000 17.6629 -22.5373 1.2164 -26.3403 1.3350 51.5501 -0.0000 9.3460 0.0000 -3.2925 -7.4620 -6.0601 0.0000 -0.0000 0.0000 0.0000 -0.0000 0.0000
